<?xml version="1.0" standalone="no"?><!DOCTYPE svg PUBLIC "-//W3C//DTD SVG 1.1//EN" "http://www.w3.org/Graphics/SVG/1.1/DTD/svg11.dtd"><svg t="1577416565770" class="icon" viewBox="0 0 1024 1024" version="1.1" xmlns="http://www.w3.org/2000/svg" p-id="1141" width="13" height="13" xmlns:xlink="http://www.w3.org/1999/xlink"><defs><style type="text/css"></style></defs><path d="M1024 1024H0V0h1024v1024zM64.000361 960.000361h896V64.000361H64.000361v896z" p-id="1142" fill="#8a8a8a"></path><path d="M32.000542 128h959.999639v64.000361H32.000542zM736.000181 768h63.999638v64.000361h-63.999638zM608.000181 768h63.999638v64.000361h-63.999638zM480.000181 768h63.999638v64.000361h-63.999638zM352.000181 768h63.999638v64.000361h-63.999638zM224.000181 768h64.000361v64.000361h-64.000361zM480.000181 352.000181h63.999638v352.00018h-63.999638z" p-id="1143" fill="#8a8a8a"></path><path d="M585.376118 470.623701L512 397.248305 438.624604 470.623701l-45.248124-45.248125L512 306.752056l118.624243 118.62352z" p-id="1144" fill="#8a8a8a"></path></svg>